  0
SECTION
  2
HEADER
  9
$ACADVER
  1
AC1009
  9
$INSUNITS
 70
     1
  0
ENDSEC
  0
SECTION
  2
TABLES
  0
TABLE
  2
LAYER
 70
     8
  0
LAYER
  2
0
 62
     7
 70
0
  6
CONTINUOUS
  0
LAYER
  2
1
 62
     1
 70
0
  6
CONTINUOUS
  0
LAYER
  2
2
 62
     2
 70
0
  6
CONTINUOUS
  0
LAYER
  2
3
 62
     3
 70
0
  6
CONTINUOUS
  0
LAYER
  2
4
 62
     4
 70
0
  6
CONTINUOUS
  0
LAYER
  2
5
 62
     5
 70
0
  6
CONTINUOUS
  0
LAYER
  2
6
 62
     6
 70
0
  6
CONTINUOUS
  0
LAYER
  2
7
 62
     7
 70
0
  6
CONTINUOUS
  0
ENDTAB
  0
TABLE
  2
STYLE
 70
     1
  0
STYLE
 70
     0
  2
STANDARD
  3
TXT
 40
0.00
 41
1.00
 42
1.00
 50
0.00
 71
     0
  0
ENDTAB
  0
ENDSEC
  0
SECTION
  2
BLOCKS
  0
BLOCK
  8
0
  2
EPAD
 70
0
 10
0.0
 20
0.0
  0
POLYLINE
  8
0
 66
1
 70
1
 40
0.5
 41
0.5
  0
VERTEX
  8
0
 10
-0.25
 20
0.0
 42
1.0
  0
VERTEX
  8
0
 10
0.25
 20
0.0
 42
1.0
  0
SEQEND
  8
0
  0
ENDBLK
  8
0
  0
BLOCK
  8
0
  2
RPAD
 70
0
 10
0.0
 20
0.0
  0
TRACE
  8
0
 10
-0.5
 20
-0.5
 11
-0.5
 21
0.5
 12
0.5
 22
-0.5
 13
0.5
 23
0.5
  0
ENDBLK
  8
0
  0
ENDSEC
0
SECTION
2
ENTITIES
0
POLYLINE
8
1
66
1
40
0.008000
41
0.008000
0
VERTEX
8
1
10
1.476378
20
15.883827
0
VERTEX
8
1
10
2.500000
20
15.883827
0
VERTEX
8
1
10
2.500000
20
18.442882
0
VERTEX
8
1
10
1.476378
20
18.442882
0
VERTEX
8
1
10
1.476378
20
15.883827
0
SEQEND
8
1
0
POLYLINE
8
1
66
1
40
0.008000
41
0.008000
0
VERTEX
8
1
10
-5.452756
20
18.797213
0
VERTEX
8
1
10
-4.901575
20
18.797213
0
VERTEX
8
1
10
-4.901575
20
19.545244
0
VERTEX
8
1
10
-5.452756
20
19.545244
0
VERTEX
8
1
10
-5.452756
20
18.797213
0
SEQEND
8
1
0
POLYLINE
8
1
66
1
40
0.008000
41
0.008000
0
VERTEX
8
1
10
3.681102
20
14.978315
0
VERTEX
8
1
10
4.822835
20
14.978315
0
VERTEX
8
1
10
4.822835
20
17.143669
0
VERTEX
8
1
10
3.681102
20
17.143669
0
VERTEX
8
1
10
3.681102
20
14.978315
0
SEQEND
8
1
0
POLYLINE
8
1
66
1
40
0.008000
41
0.008000
0
VERTEX
8
1
10
-3.917323
20
16.671228
0
VERTEX
8
1
10
-2.027559
20
16.671228
0
VERTEX
8
1
10
-2.027559
20
17.340520
0
VERTEX
8
1
10
-3.917323
20
17.340520
0
VERTEX
8
1
10
-3.917323
20
16.671228
0
SEQEND
8
1
0
POLYLINE
8
1
66
1
40
0.008000
41
0.008000
0
VERTEX
8
1
10
-6.988189
20
14.899575
0
VERTEX
8
1
10
6.791339
20
14.899575
0
VERTEX
8
1
10
6.791339
20
20.411386
0
VERTEX
8
1
10
-6.988189
20
20.411386
0
VERTEX
8
1
10
-6.988189
20
14.899575
0
SEQEND
8
1
0
POLYLINE
8
1
66
1
40
0.008000
41
0.008000
0
VERTEX
8
1
10
-5.413386
20
17.222409
0
VERTEX
8
1
10
-4.980315
20
17.222409
0
VERTEX
8
1
10
-4.980315
20
17.970441
0
VERTEX
8
1
10
-5.413386
20
17.970441
0
VERTEX
8
1
10
-5.413386
20
17.222409
0
SEQEND
8
1
0
POLYLINE
8
1
66
1
40
0.008000
41
0.008000
0
VERTEX
8
1
10
-6.988189
20
-19.155543
0
VERTEX
8
1
10
6.791339
20
-19.155543
0
VERTEX
8
1
10
6.791339
20
-5.966567
0
VERTEX
8
1
10
-6.988189
20
-5.966567
0
VERTEX
8
1
10
-6.988189
20
-19.155543
0
SEQEND
8
1
0
POLYLINE
8
1
66
1
40
0.008000
41
0.008000
0
VERTEX
8
1
10
-20.374016
20
-4.391764
0
VERTEX
8
1
10
-7.185039
20
-4.391764
0
VERTEX
8
1
10
-7.185039
20
1.120047
0
VERTEX
8
1
10
-20.374016
20
1.120047
0
VERTEX
8
1
10
-20.374016
20
-4.391764
0
SEQEND
8
1
0
CIRCLE
8
2
10
-17.027559
20
-1.635858
40
2.358833
0
CIRCLE
8
2
10
-10.531496
20
-1.635858
40
2.356203
0
CIRCLE
8
2
10
-13.759843
20
-0.848457
40
0.789974
0
CIRCLE
8
2
10
-13.759843
20
-2.816961
40
0.789974
0
POLYLINE
8
1
66
1
40
0.008000
41
0.008000
0
VERTEX
8
1
10
-6.988189
20
-4.391764
0
VERTEX
8
1
10
6.791339
20
-4.391764
0
VERTEX
8
1
10
6.791339
20
1.120047
0
VERTEX
8
1
10
-6.988189
20
1.120047
0
VERTEX
8
1
10
-6.988189
20
-4.391764
0
SEQEND
8
1
0
POLYLINE
8
1
66
1
40
0.008000
41
0.008000
0
VERTEX
8
1
10
-5.807087
20
-4.116173
0
VERTEX
8
1
10
0.964567
20
-4.116173
0
VERTEX
8
1
10
0.964567
20
-0.100425
0
VERTEX
8
1
10
-5.807087
20
-0.100425
0
VERTEX
8
1
10
-5.807087
20
-4.116173
0
SEQEND
8
1
0
CIRCLE
8
2
10
5.807087
20
-7.935071
40
0.088034
0
CIRCLE
8
2
10
-4.035433
20
-7.935071
40
0.088034
0
CIRCLE
8
2
10
-4.035433
20
-17.777591
40
0.088034
0
CIRCLE
8
2
10
5.807087
20
-17.777591
40
0.088034
0
CIRCLE
8
2
10
-6.003937
20
-7.935071
40
0.088034
0
CIRCLE
8
2
10
-6.003937
20
-17.777591
40
0.088034
0
POLYLINE
8
1
66
1
40
0.008000
41
0.008000
0
VERTEX
8
1
10
-6.988189
20
1.513748
0
VERTEX
8
1
10
6.791339
20
1.513748
0
VERTEX
8
1
10
6.791339
20
14.702724
0
VERTEX
8
1
10
-6.988189
20
14.702724
0
VERTEX
8
1
10
-6.988189
20
1.513748
0
SEQEND
8
1
0
POLYLINE
8
1
66
1
40
0.008000
41
0.008000
0
VERTEX
8
1
10
-4.232283
20
2.891701
0
VERTEX
8
1
10
-4.035433
20
2.891701
0
VERTEX
8
1
10
-4.035433
20
4.466504
0
VERTEX
8
1
10
-4.232283
20
4.466504
0
VERTEX
8
1
10
-4.232283
20
2.891701
0
SEQEND
8
1
0
POLYLINE
8
1
66
1
40
0.008000
41
0.008000
0
VERTEX
8
1
10
-0.807087
20
2.891701
0
VERTEX
8
1
10
-0.610236
20
2.891701
0
VERTEX
8
1
10
-0.610236
20
4.466504
0
VERTEX
8
1
10
-0.807087
20
4.466504
0
VERTEX
8
1
10
-0.807087
20
2.891701
0
SEQEND
8
1
0
POLYLINE
8
1
66
1
40
0.008000
41
0.008000
0
VERTEX
8
1
10
7.185039
20
-4.391764
0
VERTEX
8
1
10
20.374016
20
-4.391764
0
VERTEX
8
1
10
20.374016
20
1.120047
0
VERTEX
8
1
10
7.185039
20
1.120047
0
VERTEX
8
1
10
7.185039
20
-4.391764
0
SEQEND
8
1
0
CIRCLE
8
2
10
10.531496
20
-1.635858
40
2.358833
0
CIRCLE
8
2
10
17.027559
20
-1.635858
40
2.356203
0
CIRCLE
8
2
10
13.799213
20
-0.848457
40
0.789974
0
CIRCLE
8
2
10
13.799213
20
-2.816961
40
0.789974
0
CIRCLE
8
2
10
4.271654
20
18.836583
40
1.173022
0
POLYLINE
8
1
66
1
40
0.008000
41
0.008000
0
VERTEX
8
1
10
-5.413386
20
15.647606
0
VERTEX
8
1
10
-4.980315
20
15.647606
0
VERTEX
8
1
10
-4.980315
20
16.395638
0
VERTEX
8
1
10
-5.413386
20
16.395638
0
VERTEX
8
1
10
-5.413386
20
15.647606
0
SEQEND
8
1
0
CIRCLE
8
2
10
-3.838583
20
19.230283
40
0.783993
0
CIRCLE
8
2
10
-2.145669
20
19.230283
40
0.783993
0
POLYLINE
8
1
66
1
40
0.008000
41
0.008000
0
VERTEX
8
1
10
-1.122047
20
16.041307
0
VERTEX
8
1
10
0.925197
20
16.041307
0
VERTEX
8
1
10
0.925197
20
18.875953
0
VERTEX
8
1
10
-1.122047
20
18.875953
0
VERTEX
8
1
10
-1.122047
20
16.041307
0
SEQEND
8
1
0
POLYLINE
8
1
66
1
40
0.008000
41
0.008000
0
VERTEX
8
1
10
1.988189
20
-3.328772
0
VERTEX
8
1
10
6.397638
20
-3.328772
0
VERTEX
8
1
10
6.397638
20
-0.376016
0
VERTEX
8
1
10
1.988189
20
-0.376016
0
VERTEX
8
1
10
1.988189
20
-3.328772
0
SEQEND
8
1
0
POLYLINE
8
1
66
1
40
0.008000
41
0.008000
0
VERTEX
8
1
10
4.822835
20
1.907449
0
VERTEX
8
1
10
5.019685
20
1.907449
0
VERTEX
8
1
10
5.019685
20
3.482252
0
VERTEX
8
1
10
4.822835
20
3.482252
0
VERTEX
8
1
10
4.822835
20
1.907449
0
SEQEND
8
1
0
POLYLINE
8
1
66
1
40
0.008000
41
0.008000
0
VERTEX
8
1
10
2.854331
20
1.907449
0
VERTEX
8
1
10
3.051181
20
1.907449
0
VERTEX
8
1
10
3.051181
20
3.482252
0
VERTEX
8
1
10
2.854331
20
3.482252
0
VERTEX
8
1
10
2.854331
20
1.907449
0
SEQEND
8
1
0
ENDSEC
0
EOF

